<?xml version="1.0" encoding="utf-8" standalone="no"?>
<!DOCTYPE svg PUBLIC "-//W3C//DTD SVG 1.1//EN"
  "http://www.w3.org/Graphics/SVG/1.1/DTD/svg11.dtd">
<svg xmlns:xlink="http://www.w3.org/1999/xlink" width="503.28pt" height="432pt" viewBox="0 0 503.28 432" xmlns="http://www.w3.org/2000/svg" version="1.1">
 <metadata>
  <rdf:RDF xmlns:dc="http://purl.org/dc/elements/1.1/" xmlns:cc="http://creativecommons.org/ns#" xmlns:rdf="http://www.w3.org/1999/02/22-rdf-syntax-ns#">
   <cc:Work>
    <dc:type rdf:resource="http://purl.org/dc/dcmitype/StillImage"/>
    <dc:date>2022-12-29T16:52:45.460661</dc:date>
    <dc:format>image/svg+xml</dc:format>
    <dc:creator>
     <cc:Agent>
      <dc:title>Matplotlib v3.5.3, https://matplotlib.org/</dc:title>
     </cc:Agent>
    </dc:creator>
   </cc:Work>
  </rdf:RDF>
 </metadata>
 <defs>
  <style type="text/css">*{stroke-linejoin: round; stroke-linecap: butt}</style>
 </defs>
 <g id="figure_1">
  <g id="patch_1">
   <path d="M 0 432 
L 503.28 432 
L 503.28 0 
L 0 0 
z
" style="fill: #ffffff"/>
  </g>
  <g id="axes_1">
   <g id="patch_2">
    <path d="M 76.22595 380.34 
L 488.1816 380.34 
L 488.1816 12.96 
L 76.22595 12.96 
z
" style="fill: #eaeaf2"/>
   </g>
   <g id="matplotlib.axis_1">
    <g id="xtick_1">
     <g id="line2d_1">
      <path d="M 109.448969 380.34 
L 109.448969 12.96 
" clip-path="url(#p121ccd71b3)" style="fill: none; stroke: #ffffff; stroke-linecap: round"/>
     </g>
     <g id="text_1">
      <!-- 0 -->
      <g style="fill: #262626" transform="translate(105.949594 398.198281)scale(0.11 -0.11)">
       <defs>
        <path id="DejaVuSans-30" d="M 2034 4250 
Q 1547 4250 1301 3770 
Q 1056 3291 1056 2328 
Q 1056 1369 1301 889 
Q 1547 409 2034 409 
Q 2525 409 2770 889 
Q 3016 1369 3016 2328 
Q 3016 3291 2770 3770 
Q 2525 4250 2034 4250 
z
M 2034 4750 
Q 2819 4750 3233 4129 
Q 3647 3509 3647 2328 
Q 3647 1150 3233 529 
Q 2819 -91 2034 -91 
Q 1250 -91 836 529 
Q 422 1150 422 2328 
Q 422 3509 836 4129 
Q 1250 4750 2034 4750 
z
" transform="scale(0.015625)"/>
       </defs>
       <use xlink:href="#DejaVuSans-30"/>
      </g>
     </g>
    </g>
    <g id="xtick_2">
     <g id="line2d_2">
      <path d="M 159.341372 380.34 
L 159.341372 12.96 
" clip-path="url(#p121ccd71b3)" style="fill: none; stroke: #ffffff; stroke-linecap: round"/>
     </g>
     <g id="text_2">
      <!-- 20 -->
      <g style="fill: #262626" transform="translate(152.342622 398.198281)scale(0.11 -0.11)">
       <defs>
        <path id="DejaVuSans-32" d="M 1228 531 
L 3431 531 
L 3431 0 
L 469 0 
L 469 531 
Q 828 903 1448 1529 
Q 2069 2156 2228 2338 
Q 2531 2678 2651 2914 
Q 2772 3150 2772 3378 
Q 2772 3750 2511 3984 
Q 2250 4219 1831 4219 
Q 1534 4219 1204 4116 
Q 875 4013 500 3803 
L 500 4441 
Q 881 4594 1212 4672 
Q 1544 4750 1819 4750 
Q 2544 4750 2975 4387 
Q 3406 4025 3406 3419 
Q 3406 3131 3298 2873 
Q 3191 2616 2906 2266 
Q 2828 2175 2409 1742 
Q 1991 1309 1228 531 
z
" transform="scale(0.015625)"/>
       </defs>
       <use xlink:href="#DejaVuSans-32"/>
       <use xlink:href="#DejaVuSans-30" x="63.623047"/>
      </g>
     </g>
    </g>
    <g id="xtick_3">
     <g id="line2d_3">
      <path d="M 209.233776 380.34 
L 209.233776 12.96 
" clip-path="url(#p121ccd71b3)" style="fill: none; stroke: #ffffff; stroke-linecap: round"/>
     </g>
     <g id="text_3">
      <!-- 40 -->
      <g style="fill: #262626" transform="translate(202.235026 398.198281)scale(0.11 -0.11)">
       <defs>
        <path id="DejaVuSans-34" d="M 2419 4116 
L 825 1625 
L 2419 1625 
L 2419 4116 
z
M 2253 4666 
L 3047 4666 
L 3047 1625 
L 3713 1625 
L 3713 1100 
L 3047 1100 
L 3047 0 
L 2419 0 
L 2419 1100 
L 313 1100 
L 313 1709 
L 2253 4666 
z
" transform="scale(0.015625)"/>
       </defs>
       <use xlink:href="#DejaVuSans-34"/>
       <use xlink:href="#DejaVuSans-30" x="63.623047"/>
      </g>
     </g>
    </g>
    <g id="xtick_4">
     <g id="line2d_4">
      <path d="M 259.12618 380.34 
L 259.12618 12.96 
" clip-path="url(#p121ccd71b3)" style="fill: none; stroke: #ffffff; stroke-linecap: round"/>
     </g>
     <g id="text_4">
      <!-- 60 -->
      <g style="fill: #262626" transform="translate(252.12743 398.198281)scale(0.11 -0.11)">
       <defs>
        <path id="DejaVuSans-36" d="M 2113 2584 
Q 1688 2584 1439 2293 
Q 1191 2003 1191 1497 
Q 1191 994 1439 701 
Q 1688 409 2113 409 
Q 2538 409 2786 701 
Q 3034 994 3034 1497 
Q 3034 2003 2786 2293 
Q 2538 2584 2113 2584 
z
M 3366 4563 
L 3366 3988 
Q 3128 4100 2886 4159 
Q 2644 4219 2406 4219 
Q 1781 4219 1451 3797 
Q 1122 3375 1075 2522 
Q 1259 2794 1537 2939 
Q 1816 3084 2150 3084 
Q 2853 3084 3261 2657 
Q 3669 2231 3669 1497 
Q 3669 778 3244 343 
Q 2819 -91 2113 -91 
Q 1303 -91 875 529 
Q 447 1150 447 2328 
Q 447 3434 972 4092 
Q 1497 4750 2381 4750 
Q 2619 4750 2861 4703 
Q 3103 4656 3366 4563 
z
" transform="scale(0.015625)"/>
       </defs>
       <use xlink:href="#DejaVuSans-36"/>
       <use xlink:href="#DejaVuSans-30" x="63.623047"/>
      </g>
     </g>
    </g>
    <g id="xtick_5">
     <g id="line2d_5">
      <path d="M 309.018583 380.34 
L 309.018583 12.96 
" clip-path="url(#p121ccd71b3)" style="fill: none; stroke: #ffffff; stroke-linecap: round"/>
     </g>
     <g id="text_5">
      <!-- 80 -->
      <g style="fill: #262626" transform="translate(302.019833 398.198281)scale(0.11 -0.11)">
       <defs>
        <path id="DejaVuSans-38" d="M 2034 2216 
Q 1584 2216 1326 1975 
Q 1069 1734 1069 1313 
Q 1069 891 1326 650 
Q 1584 409 2034 409 
Q 2484 409 2743 651 
Q 3003 894 3003 1313 
Q 3003 1734 2745 1975 
Q 2488 2216 2034 2216 
z
M 1403 2484 
Q 997 2584 770 2862 
Q 544 3141 544 3541 
Q 544 4100 942 4425 
Q 1341 4750 2034 4750 
Q 2731 4750 3128 4425 
Q 3525 4100 3525 3541 
Q 3525 3141 3298 2862 
Q 3072 2584 2669 2484 
Q 3125 2378 3379 2068 
Q 3634 1759 3634 1313 
Q 3634 634 3220 271 
Q 2806 -91 2034 -91 
Q 1263 -91 848 271 
Q 434 634 434 1313 
Q 434 1759 690 2068 
Q 947 2378 1403 2484 
z
M 1172 3481 
Q 1172 3119 1398 2916 
Q 1625 2713 2034 2713 
Q 2441 2713 2670 2916 
Q 2900 3119 2900 3481 
Q 2900 3844 2670 4047 
Q 2441 4250 2034 4250 
Q 1625 4250 1398 4047 
Q 1172 3844 1172 3481 
z
" transform="scale(0.015625)"/>
       </defs>
       <use xlink:href="#DejaVuSans-38"/>
       <use xlink:href="#DejaVuSans-30" x="63.623047"/>
      </g>
     </g>
    </g>
    <g id="xtick_6">
     <g id="line2d_6">
      <path d="M 358.910987 380.34 
L 358.910987 12.96 
" clip-path="url(#p121ccd71b3)" style="fill: none; stroke: #ffffff; stroke-linecap: round"/>
     </g>
     <g id="text_6">
      <!-- 100 -->
      <g style="fill: #262626" transform="translate(348.412862 398.198281)scale(0.11 -0.11)">
       <defs>
        <path id="DejaVuSans-31" d="M 794 531 
L 1825 531 
L 1825 4091 
L 703 3866 
L 703 4441 
L 1819 4666 
L 2450 4666 
L 2450 531 
L 3481 531 
L 3481 0 
L 794 0 
L 794 531 
z
" transform="scale(0.015625)"/>
       </defs>
       <use xlink:href="#DejaVuSans-31"/>
       <use xlink:href="#DejaVuSans-30" x="63.623047"/>
       <use xlink:href="#DejaVuSans-30" x="127.246094"/>
      </g>
     </g>
    </g>
    <g id="xtick_7">
     <g id="line2d_7">
      <path d="M 408.80339 380.34 
L 408.80339 12.96 
" clip-path="url(#p121ccd71b3)" style="fill: none; stroke: #ffffff; stroke-linecap: round"/>
     </g>
     <g id="text_7">
      <!-- 120 -->
      <g style="fill: #262626" transform="translate(398.305265 398.198281)scale(0.11 -0.11)">
       <use xlink:href="#DejaVuSans-31"/>
       <use xlink:href="#DejaVuSans-32" x="63.623047"/>
       <use xlink:href="#DejaVuSans-30" x="127.246094"/>
      </g>
     </g>
    </g>
    <g id="xtick_8">
     <g id="line2d_8">
      <path d="M 458.695794 380.34 
L 458.695794 12.96 
" clip-path="url(#p121ccd71b3)" style="fill: none; stroke: #ffffff; stroke-linecap: round"/>
     </g>
     <g id="text_8">
      <!-- 140 -->
      <g style="fill: #262626" transform="translate(448.197669 398.198281)scale(0.11 -0.11)">
       <use xlink:href="#DejaVuSans-31"/>
       <use xlink:href="#DejaVuSans-34" x="63.623047"/>
       <use xlink:href="#DejaVuSans-30" x="127.246094"/>
      </g>
     </g>
    </g>
    <g id="text_9">
     <!-- $x$ (m) -->
     <g style="fill: #262626" transform="translate(266.183775 413.604063)scale(0.12 -0.12)">
      <defs>
       <path id="DejaVuSans-Oblique-78" d="M 3841 3500 
L 2234 1784 
L 3219 0 
L 2559 0 
L 1819 1388 
L 531 0 
L -166 0 
L 1556 1844 
L 641 3500 
L 1300 3500 
L 1972 2234 
L 3144 3500 
L 3841 3500 
z
" transform="scale(0.015625)"/>
       <path id="DejaVuSans-20" transform="scale(0.015625)"/>
       <path id="DejaVuSans-28" d="M 1984 4856 
Q 1566 4138 1362 3434 
Q 1159 2731 1159 2009 
Q 1159 1288 1364 580 
Q 1569 -128 1984 -844 
L 1484 -844 
Q 1016 -109 783 600 
Q 550 1309 550 2009 
Q 550 2706 781 3412 
Q 1013 4119 1484 4856 
L 1984 4856 
z
" transform="scale(0.015625)"/>
       <path id="DejaVuSans-6d" d="M 3328 2828 
Q 3544 3216 3844 3400 
Q 4144 3584 4550 3584 
Q 5097 3584 5394 3201 
Q 5691 2819 5691 2113 
L 5691 0 
L 5113 0 
L 5113 2094 
Q 5113 2597 4934 2840 
Q 4756 3084 4391 3084 
Q 3944 3084 3684 2787 
Q 3425 2491 3425 1978 
L 3425 0 
L 2847 0 
L 2847 2094 
Q 2847 2600 2669 2842 
Q 2491 3084 2119 3084 
Q 1678 3084 1418 2786 
Q 1159 2488 1159 1978 
L 1159 0 
L 581 0 
L 581 3500 
L 1159 3500 
L 1159 2956 
Q 1356 3278 1631 3431 
Q 1906 3584 2284 3584 
Q 2666 3584 2933 3390 
Q 3200 3197 3328 2828 
z
" transform="scale(0.015625)"/>
       <path id="DejaVuSans-29" d="M 513 4856 
L 1013 4856 
Q 1481 4119 1714 3412 
Q 1947 2706 1947 2009 
Q 1947 1309 1714 600 
Q 1481 -109 1013 -844 
L 513 -844 
Q 928 -128 1133 580 
Q 1338 1288 1338 2009 
Q 1338 2731 1133 3434 
Q 928 4138 513 4856 
z
" transform="scale(0.015625)"/>
      </defs>
      <use xlink:href="#DejaVuSans-Oblique-78" transform="translate(0 0.125)"/>
      <use xlink:href="#DejaVuSans-20" transform="translate(59.179688 0.125)"/>
      <use xlink:href="#DejaVuSans-28" transform="translate(90.966797 0.125)"/>
      <use xlink:href="#DejaVuSans-6d" transform="translate(129.980469 0.125)"/>
      <use xlink:href="#DejaVuSans-29" transform="translate(227.392578 0.125)"/>
     </g>
    </g>
   </g>
   <g id="matplotlib.axis_2">
    <g id="ytick_1">
     <g id="line2d_9">
      <path d="M 76.22595 352.382847 
L 488.1816 352.382847 
" clip-path="url(#p121ccd71b3)" style="fill: none; stroke: #ffffff; stroke-linecap: round"/>
     </g>
     <g id="text_10">
      <!-- −60 -->
      <g style="fill: #262626" transform="translate(43.510794 356.561988)scale(0.11 -0.11)">
       <defs>
        <path id="DejaVuSans-2212" d="M 678 2272 
L 4684 2272 
L 4684 1741 
L 678 1741 
L 678 2272 
z
" transform="scale(0.015625)"/>
       </defs>
       <use xlink:href="#DejaVuSans-2212"/>
       <use xlink:href="#DejaVuSans-36" x="83.789062"/>
       <use xlink:href="#DejaVuSans-30" x="147.412109"/>
      </g>
     </g>
    </g>
    <g id="ytick_2">
     <g id="line2d_10">
      <path d="M 76.22595 302.704574 
L 488.1816 302.704574 
" clip-path="url(#p121ccd71b3)" style="fill: none; stroke: #ffffff; stroke-linecap: round"/>
     </g>
     <g id="text_11">
      <!-- −40 -->
      <g style="fill: #262626" transform="translate(43.510794 306.883715)scale(0.11 -0.11)">
       <use xlink:href="#DejaVuSans-2212"/>
       <use xlink:href="#DejaVuSans-34" x="83.789062"/>
       <use xlink:href="#DejaVuSans-30" x="147.412109"/>
      </g>
     </g>
    </g>
    <g id="ytick_3">
     <g id="line2d_11">
      <path d="M 76.22595 253.026301 
L 488.1816 253.026301 
" clip-path="url(#p121ccd71b3)" style="fill: none; stroke: #ffffff; stroke-linecap: round"/>
     </g>
     <g id="text_12">
      <!-- −20 -->
      <g style="fill: #262626" transform="translate(43.510794 257.205442)scale(0.11 -0.11)">
       <use xlink:href="#DejaVuSans-2212"/>
       <use xlink:href="#DejaVuSans-32" x="83.789062"/>
       <use xlink:href="#DejaVuSans-30" x="147.412109"/>
      </g>
     </g>
    </g>
    <g id="ytick_4">
     <g id="line2d_12">
      <path d="M 76.22595 203.348028 
L 488.1816 203.348028 
" clip-path="url(#p121ccd71b3)" style="fill: none; stroke: #ffffff; stroke-linecap: round"/>
     </g>
     <g id="text_13">
      <!-- 0 -->
      <g style="fill: #262626" transform="translate(59.7272 207.527169)scale(0.11 -0.11)">
       <use xlink:href="#DejaVuSans-30"/>
      </g>
     </g>
    </g>
    <g id="ytick_5">
     <g id="line2d_13">
      <path d="M 76.22595 153.669755 
L 488.1816 153.669755 
" clip-path="url(#p121ccd71b3)" style="fill: none; stroke: #ffffff; stroke-linecap: round"/>
     </g>
     <g id="text_14">
      <!-- 20 -->
      <g style="fill: #262626" transform="translate(52.72845 157.848895)scale(0.11 -0.11)">
       <use xlink:href="#DejaVuSans-32"/>
       <use xlink:href="#DejaVuSans-30" x="63.623047"/>
      </g>
     </g>
    </g>
    <g id="ytick_6">
     <g id="line2d_14">
      <path d="M 76.22595 103.991482 
L 488.1816 103.991482 
" clip-path="url(#p121ccd71b3)" style="fill: none; stroke: #ffffff; stroke-linecap: round"/>
     </g>
     <g id="text_15">
      <!-- 40 -->
      <g style="fill: #262626" transform="translate(52.72845 108.170622)scale(0.11 -0.11)">
       <use xlink:href="#DejaVuSans-34"/>
       <use xlink:href="#DejaVuSans-30" x="63.623047"/>
      </g>
     </g>
    </g>
    <g id="ytick_7">
     <g id="line2d_15">
      <path d="M 76.22595 54.313209 
L 488.1816 54.313209 
" clip-path="url(#p121ccd71b3)" style="fill: none; stroke: #ffffff; stroke-linecap: round"/>
     </g>
     <g id="text_16">
      <!-- 60 -->
      <g style="fill: #262626" transform="translate(52.72845 58.492349)scale(0.11 -0.11)">
       <use xlink:href="#DejaVuSans-36"/>
       <use xlink:href="#DejaVuSans-30" x="63.623047"/>
      </g>
     </g>
    </g>
    <g id="text_17">
     <!-- $y$ (m) -->
     <g style="fill: #262626" transform="translate(36.990794 212.67)rotate(-90)scale(0.12 -0.12)">
      <defs>
       <path id="DejaVuSans-Oblique-79" d="M 1588 -325 
Q 1188 -997 936 -1164 
Q 684 -1331 294 -1331 
L -159 -1331 
L -63 -850 
L 269 -850 
Q 509 -850 678 -719 
Q 847 -588 1056 -206 
L 1234 128 
L 459 3500 
L 1069 3500 
L 1650 819 
L 3256 3500 
L 3859 3500 
L 1588 -325 
z
" transform="scale(0.015625)"/>
      </defs>
      <use xlink:href="#DejaVuSans-Oblique-79" transform="translate(0 0.125)"/>
      <use xlink:href="#DejaVuSans-20" transform="translate(59.179688 0.125)"/>
      <use xlink:href="#DejaVuSans-28" transform="translate(90.966797 0.125)"/>
      <use xlink:href="#DejaVuSans-6d" transform="translate(129.980469 0.125)"/>
      <use xlink:href="#DejaVuSans-29" transform="translate(227.392578 0.125)"/>
     </g>
    </g>
   </g>
   <g id="patch_3">
    <path d="M 81.574853 220.617704 
L 101.531814 220.617704 
L 101.531814 193.294653 
L 81.574853 193.294653 
L 81.574853 220.617704 
z
" clip-path="url(#p121ccd71b3)" style="fill: none; stroke: #808080; stroke-linejoin: miter"/>
   </g>
   <g id="line2d_16">
    <path d="M 109.448969 203.348028 
L 110.360284 203.562891 
L 112.446069 204.272999 
L 113.455192 204.454004 
L 115.721157 204.477458 
L 119.377664 203.995172 
L 119.892365 204.035818 
L 120.431997 203.958016 
L 120.980868 204.018638 
L 125.908215 203.301468 
L 129.396113 203.222245 
L 130.646705 203.066407 
L 135.647339 203.219177 
L 137.098133 203.402162 
L 143.412122 203.235022 
L 145.853419 203.175659 
L 155.918375 203.233105 
L 159.11256 203.519072 
L 162.064877 203.509469 
L 163.260433 203.558278 
L 165.855237 203.534607 
L 166.488572 203.663978 
L 169.737785 203.669064 
L 170.382042 203.777069 
L 182.999603 203.496792 
L 183.559519 203.434095 
L 184.717534 203.49501 
L 186.569957 203.336106 
L 189.612886 203.47529 
L 191.86522 203.442907 
L 194.053788 203.547482 
L 205.370875 203.430774 
L 206.649272 203.417411 
L 207.23343 203.519618 
L 222.626402 203.352049 
L 223.98497 203.35086 
L 226.798407 203.312297 
L 227.674969 203.420836 
L 230.949908 203.402565 
L 233.059067 203.457326 
L 236.353755 203.442208 
L 237.522955 203.449617 
L 239.336518 203.368011 
L 241.151063 203.353018 
L 242.377035 203.261907 
L 245.088207 203.2663 
L 246.397243 203.274681 
L 247.791093 203.20026 
L 250.493221 203.286681 
L 255.309842 203.452312 
L 255.841503 203.384457 
L 256.827553 203.438707 
L 257.788385 203.376256 
L 266.688122 203.402537 
L 269.136538 203.432885 
L 270.370064 203.429187 
L 271.661855 203.44503 
L 274.012159 203.581794 
L 275.26561 203.572526 
L 280.028972 203.912531 
L 286.288314 204.026777 
L 288.662828 203.965627 
L 290.492604 203.927521 
L 293.929758 203.87945 
L 320.711492 204.123035 
L 321.823703 204.105421 
L 322.856173 204.111924 
L 326.082411 204.043088 
L 327.194824 204.034663 
L 340.405317 203.922526 
L 342.196648 203.960349 
L 346.984293 204.041371 
L 354.586555 204.12153 
L 355.863934 204.196792 
L 357.161133 204.156718 
L 361.81272 204.261188 
L 372.897063 204.300164 
L 375.065198 204.243603 
L 379.602721 204.16805 
L 383.230028 204.130241 
L 383.836917 204.050122 
L 386.280604 204.045483 
L 388.46544 203.969969 
L 389.637264 203.924623 
L 405.681305 204.468787 
L 408.18943 204.370837 
L 411.241564 204.324232 
L 411.962101 204.272115 
L 412.626855 204.384672 
L 414.596037 204.311257 
L 415.928055 204.278316 
L 436.940054 204.345022 
L 439.070496 204.269798 
L 444.094787 204.175563 
L 449.827102 204.205778 
L 450.926208 204.221433 
L 451.982109 204.221983 
L 455.334229 204.32516 
L 456.962662 204.675691 
L 457.946929 205.086301 
L 460.030155 206.669906 
L 461.600652 208.038837 
L 462.79393 208.698435 
L 464.377556 208.978717 
L 465.095159 208.956395 
L 466.003462 208.917238 
L 467.334876 208.684049 
L 468.314366 208.410261 
L 470.872202 207.335545 
L 472.005023 206.66528 
L 474.580278 204.213584 
L 475.451224 202.893252 
L 476.581038 200.780381 
L 476.917415 199.997208 
L 477.327406 197.556196 
L 477.398477 195.90887 
L 477.182805 194.167603 
L 476.432555 191.641277 
L 475.654342 190.015463 
L 474.693433 188.567387 
L 472.951777 186.653545 
L 470.974601 185.223627 
L 469.565144 184.477018 
L 467.238383 183.715192 
L 464.895601 183.379699 
L 461.251164 183.15078 
L 457.940552 182.782063 
L 456.688493 182.434961 
L 455.472939 182.011897 
L 453.528668 181.680279 
L 451.662709 181.720861 
L 448.968592 182.159058 
L 447.464779 182.215184 
L 446.160079 182.126968 
L 445.337741 182.045689 
L 440.781246 180.890942 
L 439.748905 180.80131 
L 438.675602 180.873434 
L 435.330178 181.244813 
L 415.872663 180.940213 
L 413.485753 181.018553 
L 411.966091 181.089977 
L 406.159413 181.815142 
L 403.934359 181.862291 
L 400.177771 181.972359 
L 398.021384 181.966695 
L 394.138705 181.953445 
L 392.379848 181.961738 
L 389.932754 181.981004 
L 365.685878 181.929263 
L 360.277152 181.880768 
L 358.168221 181.833809 
L 357.169738 181.89458 
L 356.199648 181.896218 
L 350.932119 182.06917 
L 346.671791 182.19209 
L 340.085786 182.419848 
L 338.618079 182.400468 
L 333.237361 182.426942 
L 331.911146 182.480212 
L 328.015534 182.530091 
L 326.669075 182.393739 
L 326.209075 182.491047 
L 323.482203 182.39861 
L 322.954875 182.252535 
L 322.36009 182.329684 
L 321.898508 182.505035 
L 321.413458 182.400684 
L 311.625752 182.464015 
L 310.410761 182.33903 
L 307.929137 182.490338 
L 306.190217 182.473319 
L 302.649171 182.529406 
L 290.926414 182.783966 
L 288.923127 182.814913 
L 286.939452 182.836609 
L 285.553307 182.799122 
L 284.244828 182.839892 
L 276.741445 182.76863 
L 272.700806 182.709515 
L 271.613605 182.643129 
L 270.622441 182.745385 
L 265.337186 182.796295 
L 264.407685 182.884634 
L 261.785653 182.871466 
L 260.650395 183.010324 
L 258.726651 183.046086 
L 256.678407 183.110118 
L 255.938597 183.039688 
L 253.852038 183.09652 
L 242.395483 183.136005 
L 241.81409 183.261647 
L 240.647086 183.203304 
L 238.883702 183.185799 
L 237.006444 183.170599 
L 234.44997 183.123847 
L 232.124305 183.304932 
L 230.184334 183.182843 
L 225.865683 183.231589 
L 225.209318 183.165133 
L 222.142669 183.352922 
L 221.514634 183.287953 
L 220.266049 183.344625 
L 218.428659 183.336657 
L 211.511276 183.296015 
L 203.527463 183.314327 
L 202.930476 183.404294 
L 201.707713 183.317737 
L 201.119855 183.378954 
L 199.371195 183.325006 
L 191.65981 183.472795 
L 190.055783 183.509012 
L 188.446267 183.451889 
L 185.853337 183.47881 
L 184.644994 183.505063 
L 182.390298 183.558066 
L 180.651181 183.569985 
L 179.382905 183.601464 
L 174.995221 183.759516 
L 174.451353 183.682001 
L 172.955762 183.735093 
L 171.966247 183.736807 
L 170.58499 183.726521 
L 170.058922 183.63329 
L 167.875735 183.684974 
L 159.608563 183.768338 
L 154.630597 183.685367 
L 128.012677 184.138281 
L 126.919221 184.112191 
L 124.70989 184.131206 
L 122.057083 184.083909 
L 121.557839 184.143233 
L 120.041099 184.070525 
L 112.664089 183.878769 
L 112.001789 183.971101 
L 109.278825 183.743284 
L 107.951064 183.738668 
L 106.664114 183.752324 
L 105.385157 183.965919 
L 104.730256 184.114889 
L 103.03421 184.935063 
L 99.430501 187.3565 
L 97.871623 188.808159 
L 93.040768 192.145987 
L 92.348665 193.096082 
L 91.489342 194.687625 
L 90.288313 197.786496 
L 89.961742 198.719131 
L 88.888591 200.606279 
L 88.239296 202.147387 
L 88.016919 203.248826 
L 88.080309 205.163846 
L 88.124445 205.861893 
L 88.612007 207.99072 
L 89.583348 210.018119 
L 90.361587 211.298554 
L 91.728116 213.359607 
L 91.553333 213.165963 
" clip-path="url(#p121ccd71b3)" style="fill: none; stroke-dasharray: 5.55,2.4; stroke-dashoffset: 0; stroke: #000000; stroke-opacity: 0.5; stroke-width: 1.5"/>
   </g>
   <g id="line2d_17">
    <path d="M 112.764467 204.388356 
L 114.193249 204.809376 
L 115.726552 205.309768 
L 116.206254 205.397058 
L 118.485545 205.507149 
L 120.152069 205.28323 
L 122.165932 205.018218 
L 123.06232 205.017863 
L 123.579065 204.933486 
L 124.119831 205.049328 
L 125.240708 204.814336 
L 127.42283 204.626256 
L 128.694756 204.573038 
L 137.872807 204.206833 
L 140.228771 204.46814 
L 146.847072 204.286213 
L 148.252635 204.298562 
L 149.349105 204.241366 
L 156.599919 204.269278 
L 163.684813 204.494568 
L 168.076294 204.498029 
L 169.950686 204.710114 
L 179.124773 204.704466 
L 186.149495 204.347647 
L 186.685118 204.427782 
L 188.523225 204.289643 
L 191.136841 204.34473 
L 197.289468 204.493471 
L 198.296647 204.420564 
L 198.826455 204.474554 
L 199.387166 204.393845 
L 201.67113 204.476771 
L 202.233966 204.387857 
L 204.219299 204.433689 
L 205.344367 204.352287 
L 206.614792 204.334783 
L 208.422429 204.248738 
L 209.596833 204.391613 
L 210.759497 204.284069 
L 214.042183 204.311933 
L 228.889417 204.135706 
L 229.70799 204.223719 
L 230.573284 204.169731 
L 236.17538 204.264796 
L 238.55244 204.233432 
L 240.236162 204.156654 
L 241.407526 204.119873 
L 243.348305 204.120561 
L 244.349094 203.96089 
L 247.894899 204.036849 
L 248.525461 203.927721 
L 251.284505 203.925977 
L 251.871289 204.014155 
L 278.424074 204.247996 
L 282.643843 204.524271 
L 292.253418 204.49071 
L 292.671715 204.422997 
L 293.763755 204.439629 
L 296.750715 204.399786 
L 299.050814 204.480266 
L 325.767939 204.537295 
L 329.506744 204.48741 
L 331.01602 204.518951 
L 334.137825 204.440544 
L 343.719261 204.396638 
L 359.980557 204.633334 
L 361.275234 204.622641 
L 363.898098 204.719291 
L 367.952136 204.686258 
L 376.087339 204.588561 
L 378.430952 204.574273 
L 380.113485 204.520329 
L 381.884235 204.543212 
L 383.603905 204.478265 
L 389.9908 204.313585 
L 392.262037 204.339776 
L 393.720152 204.388764 
L 395.59382 204.395073 
L 396.420742 204.451802 
L 397.8151 204.530312 
L 406.439975 204.768111 
L 407.662108 204.643367 
L 408.833619 204.720029 
L 409.459059 204.757547 
L 413.927735 204.683089 
L 421.479171 204.662992 
L 429.926232 204.782329 
L 433.178142 204.743506 
L 435.440749 204.772089 
L 442.467359 204.608148 
L 448.69371 204.63409 
L 449.737719 204.680192 
L 451.364053 204.659836 
L 455.296731 204.897854 
L 456.263745 205.170549 
L 457.150205 205.565549 
L 461.011417 208.465823 
L 462.055383 208.902603 
L 462.904115 209.077004 
L 464.29567 209.099892 
L 464.739228 209.12016 
L 466.048407 208.943499 
L 467.499064 208.589115 
L 468.082704 208.346625 
L 468.601676 208.273924 
L 470.718016 207.238798 
L 472.346479 206.030904 
L 473.547698 204.949528 
L 474.050596 204.359683 
L 476.042365 201.144066 
L 476.322292 200.35171 
L 476.865678 197.133354 
L 476.809867 195.165748 
L 476.21687 192.595115 
L 475.080545 190.236507 
L 474.679576 189.538418 
L 473.052497 187.470776 
L 471.559931 186.223623 
L 469.497762 184.871415 
L 467.15945 183.951369 
L 462.556062 183.301935 
L 458.889386 183.013699 
L 455.699591 182.330963 
L 455.147717 182.101627 
L 452.377863 181.625549 
L 450.569027 181.668282 
L 448.974952 181.969271 
L 448.003535 182.038511 
L 446.019514 182.055279 
L 443.978371 181.773107 
L 442.693514 181.354599 
L 441.814754 181.117558 
L 438.859885 180.672574 
L 437.207564 180.826569 
L 436.164751 180.991125 
L 433.801678 180.998185 
L 428.228254 180.822607 
L 426.249693 180.784855 
L 423.535249 180.725066 
L 412.599123 180.751125 
L 410.353231 180.919077 
L 408.137805 181.241901 
L 406.354765 181.359928 
L 405.845161 181.468219 
L 403.1924 181.513057 
L 401.429826 181.580392 
L 396.729674 181.673609 
L 393.277625 181.558265 
L 392.175439 181.631141 
L 385.038138 181.565651 
L 383.106671 181.607902 
L 380.451475 181.557171 
L 377.618982 181.607319 
L 375.670848 181.546518 
L 370.542667 181.457322 
L 367.487869 181.508766 
L 366.308903 181.461666 
L 362.800155 181.40993 
L 356.923973 181.359816 
L 356.425675 181.446837 
L 355.468523 181.380706 
L 352.066034 181.528584 
L 351.566697 181.476273 
L 348.032559 181.595915 
L 343.990442 181.697261 
L 341.171628 181.812299 
L 337.760522 181.851233 
L 326.898456 181.938514 
L 326.154597 181.829894 
L 324.679787 181.887642 
L 322.996901 181.8764 
L 321.889472 181.660892 
L 320.983653 181.931892 
L 320.386781 181.799288 
L 318.076835 181.882602 
L 314.174823 181.922773 
L 309.035972 181.771337 
L 307.335579 181.908945 
L 301.841944 181.944532 
L 300.739672 181.980454 
L 294.575739 182.059429 
L 292.756394 182.135955 
L 291.501219 182.132396 
L 285.269842 182.247553 
L 284.695285 182.145146 
L 283.937267 182.263181 
L 279.548014 182.23645 
L 277.825243 182.281359 
L 275.501486 182.151916 
L 275.221022 182.200147 
L 270.64021 182.074229 
L 269.494879 182.194584 
L 269.004881 182.128836 
L 268.568079 182.182419 
L 268.164155 182.096088 
L 266.796883 182.196654 
L 262.969849 182.260791 
L 262.000525 182.346216 
L 258.705107 182.393024 
L 258.025561 182.474693 
L 256.538118 182.456289 
L 251.724604 182.490194 
L 251.080622 182.418247 
L 250.480013 182.509816 
L 247.049099 182.385501 
L 246.36499 182.535401 
L 245.753199 182.393575 
L 243.534985 182.580904 
L 241.564598 182.520813 
L 240.438629 182.636782 
L 239.918197 182.557802 
L 238.171694 182.589983 
L 236.943263 182.516464 
L 235.749762 182.501354 
L 226.702072 182.663359 
L 225.495838 182.597789 
L 223.951035 182.551437 
L 219.737048 182.745796 
L 218.96811 182.683985 
L 213.506105 182.688618 
L 208.87676 182.697186 
L 207.095709 182.659359 
L 205.873968 182.748556 
L 205.358954 182.700037 
L 195.276397 182.725969 
L 194.821996 182.805741 
L 192.874853 182.782244 
L 192.437376 182.859407 
L 192.037904 182.768556 
L 189.221354 182.865797 
L 187.610454 182.784652 
L 186.198097 182.875783 
L 185.69609 182.891118 
L 184.386969 182.819577 
L 183.203595 182.909608 
L 182.108241 182.81073 
L 180.974103 182.888968 
L 179.856086 182.906097 
L 174.556759 183.06117 
L 173.536362 183.078764 
L 172.047766 183.068202 
L 171.070758 183.100203 
L 163.882776 183.129196 
L 162.481934 183.209592 
L 161.902648 183.090257 
L 141.83393 183.303492 
L 139.912265 183.295374 
L 129.483522 183.488921 
L 128.171152 183.480835 
L 123.263993 183.541151 
L 122.725808 183.424041 
L 120.690716 183.485093 
L 120.213782 183.541731 
L 119.269049 183.49796 
L 111.261373 183.270886 
L 110.661739 183.368178 
L 109.959926 183.232176 
L 104.625333 183.278999 
L 103.416834 183.526779 
L 102.254158 184.031216 
L 98.039419 186.706548 
L 96.698142 187.890581 
L 94.177821 189.559769 
L 91.982061 191.059483 
L 91.592007 191.438285 
L 90.146047 193.875788 
L 89.374734 195.291977 
L 89.042269 196.471138 
L 88.543376 197.738767 
L 87.557499 199.522563 
L 86.922281 200.974681 
L 86.776637 201.491012 
L 86.74145 203.441679 
L 86.885696 204.733974 
L 87.161407 206.091183 
L 87.368975 206.76732 
L 89.036285 209.856564 
L 90.252668 211.661546 
L 90.137851 211.476526 
" clip-path="url(#p121ccd71b3)" style="fill: none; stroke: #023eff; stroke-opacity: 0.75; stroke-width: 1.5; stroke-linecap: round"/>
   </g>
   <g id="line2d_18">
    <path d="M 119.990402 206.286464 
L 121.451561 206.547407 
L 122.532095 206.236212 
L 123.449823 206.113886 
L 118.250662 204.961023 
L 119.056921 204.957833 
L 119.984951 204.816922 
L 120.601483 204.549588 
L 122.4514 204.108357 
L 126.148291 202.968494 
L 128.286041 202.438441 
L 130.262521 202.14464 
L 130.994357 203.089822 
L 133.658689 202.989986 
L 135.920823 203.301718 
L 137.196413 203.32594 
L 138.283072 202.98151 
L 140.616603 203.04313 
L 141.718775 203.030269 
L 143.972486 202.482156 
L 144.979858 202.462246 
L 147.743471 202.528055 
L 152.151242 203.626961 
L 154.005836 203.796792 
L 156.324321 202.092982 
L 160.854997 202.063587 
L 161.864963 202.148987 
L 163.653461 202.098958 
L 165.945068 202.301374 
L 166.342387 202.854583 
L 168.499017 203.02588 
L 169.504008 203.180161 
L 172.428951 204.674299 
L 174.501976 204.876108 
L 175.511187 204.920697 
L 179.555049 203.446676 
L 183.592426 203.522986 
L 187.476458 204.653443 
L 192.368332 205.011454 
L 193.938606 205.252072 
L 195.8049 205.337483 
L 197.940544 202.21722 
L 201.741769 202.103052 
L 203.064535 203.446397 
L 208.181421 203.539221 
L 209.918563 205.112306 
L 213.117041 205.271852 
L 215.996841 203.113031 
L 217.954098 203.117106 
L 220.710842 203.104588 
L 221.445137 202.865596 
L 223.812796 202.845522 
L 228.337671 202.813046 
L 231.347973 203.100328 
L 233.122973 203.076792 
L 233.752947 203.078613 
L 235.147706 202.257892 
L 238.908035 202.247801 
L 242.773586 203.155613 
L 247.493795 203.219937 
L 249.066385 201.144258 
L 252.040494 201.04544 
L 255.586694 202.067847 
L 257.858806 202.051353 
L 259.758651 202.107365 
L 259.569523 203.748096 
L 263.142529 204.031001 
L 265.634624 202.17268 
L 267.679857 202.172318 
L 270.404682 202.235556 
L 271.883111 204.150416 
L 272.856806 204.177625 
L 274.044826 204.419522 
L 276.306831 204.595238 
L 279.261893 203.787997 
L 287.620521 204.254518 
L 288.51301 204.159242 
L 294.130918 204.56893 
L 297.18019 204.300511 
L 301.249362 204.541913 
L 303.11207 204.449744 
L 305.320972 204.615885 
L 308.226833 204.704512 
L 312.569656 205.032497 
L 315.534763 204.436031 
L 319.3986 204.613512 
L 321.306938 202.192963 
L 324.812761 202.086395 
L 327.574468 201.922395 
L 330.390586 201.936169 
L 333.618738 204.037615 
L 338.626939 204.323765 
L 340.342277 204.948361 
L 343.411054 205.21063 
L 347.307053 204.502717 
L 352.655058 204.746055 
L 354.146566 202.949753 
L 356.376497 202.981957 
L 357.466807 203.027089 
L 359.364466 203.999901 
L 364.415027 204.163491 
L 365.269011 203.096477 
L 367.912336 203.110953 
L 372.62019 203.02068 
L 374.222056 203.038998 
L 377.684548 203.826478 
L 379.849599 203.957069 
L 381.914781 203.898582 
L 384.700192 203.989156 
L 385.645787 203.961003 
L 386.65679 204.05249 
L 389.129707 203.134741 
L 393.349944 203.1642 
L 394.614957 204.639878 
L 396.651722 204.79763 
L 397.422856 204.870874 
L 398.257522 203.066954 
L 399.169914 203.083417 
L 401.877634 203.241004 
L 402.936754 203.224632 
L 404.35415 203.551383 
L 407.635699 203.731883 
L 409.373028 203.679666 
L 411.170011 202.140731 
L 414.595218 202.051374 
L 416.895422 203.571599 
L 420.560244 203.736956 
L 421.689571 203.812613 
L 424.114785 202.918491 
L 429.218464 202.984466 
L 430.324586 205.330588 
L 438.192912 205.95396 
L 439.210798 206.087855 
L 443.540585 203.706122 
L 447.293355 203.830402 
L 448.260044 203.811349 
L 449.419685 201.997951 
L 452.856169 202.005489 
L 453.196348 202.026163 
L 453.745718 203.821507 
L 455.591622 203.928487 
L 456.370517 204.067416 
L 457.496733 204.454773 
L 462.357348 205.577023 
L 462.770898 207.531905 
L 464.011342 207.677404 
L 465.383146 207.748425 
L 467.937348 208.129814 
L 469.629624 207.948376 
L 470.169419 207.76537 
L 471.071696 207.58345 
L 470.527735 206.724193 
L 471.488498 206.265035 
L 472.430849 205.686106 
L 473.85162 204.513837 
L 474.500269 203.57232 
L 476.921859 202.877047 
L 477.47269 201.875287 
L 477.969491 199.526588 
L 478.011459 196.22319 
L 477.687749 194.823811 
L 477.113993 193.486071 
L 476.440381 192.238395 
L 475.573263 191.049239 
L 474.626888 190.060184 
L 472.560861 186.628041 
L 471.41341 185.825909 
L 468.900144 184.650512 
L 467.620051 184.360359 
L 465.957646 184.580236 
L 460.456176 183.877328 
L 457.436859 181.995348 
L 454.54393 181.394068 
L 453.505797 181.366398 
L 452.571626 181.475425 
L 449.486592 181.375322 
L 448.258394 183.144788 
L 447.556966 183.016652 
L 445.297149 182.256325 
L 442.250911 180.815852 
L 441.397718 180.641329 
L 439.541601 180.668156 
L 438.610482 180.744121 
L 435.944479 181.346187 
L 432.909885 181.067567 
L 429.259583 179.971255 
L 425.764451 179.594617 
L 424.20722 179.967523 
L 417.945514 179.604227 
L 417.085168 179.904676 
L 415.777515 179.83692 
L 412.584536 180.05804 
L 409.573819 183.513502 
L 408.656774 183.658826 
L 405.924179 183.807896 
L 403.176649 183.008892 
L 399.610885 183.103221 
L 397.02591 183.685464 
L 392.469435 183.707551 
L 391.906506 181.641938 
L 386.316295 181.367253 
L 382.607741 180.535923 
L 379.370347 180.347783 
L 374.361417 179.924711 
L 373.320825 179.903201 
L 373.454557 181.709701 
L 369.866596 181.554917 
L 366.647688 182.274663 
L 362.445307 182.149031 
L 359.927197 182.704074 
L 359.035791 182.777269 
L 358.189903 182.721864 
L 356.532548 182.817612 
L 354.156824 181.68782 
L 350.599419 181.637818 
L 349.252348 182.619599 
L 344.943926 182.669719 
L 342.056301 182.277937 
L 332.429036 182.169156 
L 329.46273 181.954035 
L 328.266495 183.881994 
L 325.448862 183.655494 
L 324.653974 183.877088 
L 320.597171 181.798877 
L 318.800933 181.810787 
L 314.137534 181.604345 
L 312.041943 181.34705 
L 308.477399 184.186376 
L 303.832942 184.245094 
L 304.40492 181.885404 
L 300.772027 181.739318 
L 299.020567 181.107124 
L 295.912959 180.830556 
L 294.032154 180.683097 
L 292.073846 181.656893 
L 289.821746 181.592452 
L 288.758822 181.375729 
L 287.640966 181.374878 
L 284.94421 183.919273 
L 281.995578 183.899037 
L 281.044442 183.794229 
L 277.795031 185.014139 
L 276.137346 184.940654 
L 275.270782 184.962123 
L 271.893925 183.79236 
L 269.474541 183.709756 
L 268.468454 183.453194 
L 263.228249 183.501083 
L 261.107647 183.561741 
L 259.237443 183.452318 
L 256.721171 183.69507 
L 252.13809 183.505615 
L 251.0495 183.165624 
L 249.939994 183.109106 
L 248.950495 183.205861 
L 246.3149 183.00826 
L 242.997502 183.856216 
L 238.912063 183.627072 
L 234.191279 183.75744 
L 231.997553 183.62787 
L 229.854556 184.045735 
L 226.030618 183.779601 
L 225.585079 185.127232 
L 224.562456 185.055099 
L 223.522657 185.186601 
L 222.865363 185.085949 
L 220.78235 185.035834 
L 210.784916 184.412554 
L 209.741486 184.462459 
L 201.433578 183.953109 
L 200.121374 183.880161 
L 200.244314 184.820689 
L 198.483449 184.747117 
L 196.801263 184.779417 
L 194.442793 184.013259 
L 191.921847 183.892879 
L 190.120109 183.796648 
L 188.146245 183.332632 
L 183.511039 182.974191 
L 182.041468 183.672764 
L 172.000005 183.030321 
L 169.775517 183.74448 
L 167.426087 183.653941 
L 164.953534 183.478026 
L 163.835856 185.392323 
L 159.918987 185.186533 
L 155.801504 185.035888 
L 154.216478 185.737656 
L 151.871356 185.685392 
L 149.587325 185.754015 
L 150.283606 184.549271 
L 142.502324 184.210936 
L 145.011958 184.808091 
L 140.894366 184.642774 
L 135.303522 184.469952 
L 136.291664 183.938222 
L 127.138588 183.388751 
L 130.461076 184.888214 
L 125.202348 184.654917 
L 124.032135 184.610312 
L 127.593295 183.874954 
L 125.881305 183.639227 
L 121.019475 183.283401 
L 120.321385 184.087298 
L 114.521758 183.56608 
L 112.411555 183.366444 
L 113.171185 185.373993 
L 105.451896 184.867821 
L 103.469664 184.81487 
L 105.322393 184.962717 
L 97.529075 186.607557 
L 100.180625 189.339942 
L 96.170187 191.409849 
L 98.289663 189.095992 
L 95.724365 190.451742 
L 93.30914 191.623508 
L 91.913646 192.570862 
L 92.206562 192.826439 
L 91.090478 193.948006 
L 89.190146 196.176946 
L 90.067382 198.052469 
L 89.01547 199.242751 
L 87.174919 201.847082 
L 86.396091 203.18898 
L 88.388413 201.012071 
L 88.160242 202.4009 
L 88.085869 203.909996 
L 88.215708 205.460411 
L 88.717854 206.804063 
L 89.451023 208.094911 
L 90.479399 210.622356 
L 91.197801 212.291131 
L 91.125465 212.153389 
L 92.175343 212.268812 
L 91.723765 213.705383 
L 91.723765 213.705383 
" clip-path="url(#p121ccd71b3)" style="fill: none; stroke: #ff7c00; stroke-opacity: 0.75; stroke-width: 1.5; stroke-linecap: round"/>
   </g>
   <g id="line2d_19">
    <path d="M 110.136606 204.470764 
L 112.110944 205.090359 
L 113.572192 205.485775 
L 115.877351 205.593256 
L 117.537804 205.38291 
L 119.539776 205.117828 
L 120.454895 205.106663 
L 120.983256 205.039908 
L 121.521306 205.148433 
L 122.644495 204.912709 
L 124.300585 204.748704 
L 130.200316 204.426205 
L 131.626799 204.437069 
L 135.379068 204.265342 
L 137.687588 204.515496 
L 144.272111 204.35054 
L 146.264183 204.290362 
L 152.923773 204.274021 
L 154.493148 204.330107 
L 158.294823 204.526992 
L 159.319906 204.564328 
L 161.636999 204.519183 
L 162.79811 204.605285 
L 164.804894 204.566199 
L 165.444185 204.534 
L 167.323351 204.766259 
L 171.014521 204.796564 
L 172.153551 204.884538 
L 177.583898 204.73533 
L 180.675291 204.631045 
L 183.437472 204.403449 
L 183.93013 204.495614 
L 185.719427 204.367365 
L 187.727355 204.321227 
L 188.86604 204.430081 
L 189.399904 204.455047 
L 189.907428 204.349064 
L 191.024759 204.433082 
L 192.120986 204.474058 
L 198.196338 204.480466 
L 198.802415 204.543573 
L 199.385653 204.448724 
L 199.980528 204.492974 
L 203.850677 204.411274 
L 205.659883 204.301247 
L 207.580431 204.36926 
L 210.065227 204.325244 
L 211.246471 204.365791 
L 223.321387 204.172496 
L 224.225873 204.218726 
L 225.599293 204.116094 
L 227.347108 204.225341 
L 229.784568 204.20875 
L 231.810137 204.294395 
L 232.811359 204.264213 
L 234.013319 204.251615 
L 237.387354 204.165739 
L 238.569064 204.135094 
L 240.465944 204.141136 
L 241.440859 203.971187 
L 244.847958 204.058833 
L 246.188305 203.940442 
L 256.213198 204.071614 
L 257.315851 204.108029 
L 258.33893 204.104276 
L 269.863912 204.026948 
L 272.157627 204.186189 
L 273.941083 204.141594 
L 276.553793 204.370269 
L 278.802499 204.479799 
L 283.505718 204.614442 
L 285.979177 204.476271 
L 287.286378 204.474744 
L 288.411835 204.422982 
L 290.049053 204.410867 
L 293.633118 204.348368 
L 295.259531 204.369222 
L 298.258188 204.474553 
L 308.421769 204.501392 
L 310.415193 204.477019 
L 311.670274 204.492864 
L 314.710497 204.512095 
L 318.739461 204.479705 
L 323.636635 204.371787 
L 324.171863 204.446449 
L 326.262008 204.362697 
L 327.819282 204.380617 
L 337.545962 204.230443 
L 340.391341 204.257184 
L 350.026327 204.353682 
L 351.254507 204.355697 
L 355.267535 204.386429 
L 365.348967 204.478092 
L 375.093235 204.326485 
L 376.205161 204.279066 
L 379.066516 204.231762 
L 384.417185 204.088286 
L 388.376026 204.032997 
L 391.707929 204.101625 
L 394.000416 204.177218 
L 395.249524 204.269096 
L 397.13313 204.292639 
L 398.973727 204.405053 
L 403.093703 204.427781 
L 404.325569 204.291909 
L 405.492252 204.365037 
L 406.097624 204.400111 
L 411.23594 204.288965 
L 416.120095 204.27305 
L 418.188521 204.222642 
L 426.119861 204.303602 
L 432.256972 204.278696 
L 434.276782 204.189603 
L 435.785749 204.109231 
L 451.376993 204.207586 
L 452.905237 204.588382 
L 453.793496 204.98217 
L 457.916452 207.973624 
L 458.288911 208.182618 
L 459.874784 208.497738 
L 460.547314 208.448215 
L 461.41443 208.497525 
L 462.310619 208.331908 
L 463.300465 208.19026 
L 464.14546 207.958212 
L 466.795142 206.905942 
L 467.873551 206.232846 
L 470.191651 204.272554 
L 470.683975 203.68788 
L 472.671275 200.457906 
L 472.941786 199.676003 
L 473.458319 195.720801 
L 473.375597 194.579798 
L 472.798468 192.074914 
L 471.280991 189.0017 
L 469.686685 187.045437 
L 468.287641 185.84852 
L 466.259134 184.561411 
L 463.980261 183.670571 
L 460.299605 183.091308 
L 454.734184 182.572799 
L 452.936079 182.111702 
L 451.771325 181.759443 
L 449.589568 181.449749 
L 448.430919 181.461311 
L 447.842366 181.486392 
L 446.811273 181.703802 
L 445.346694 181.861314 
L 443.409734 181.890196 
L 440.947393 181.459602 
L 436.738987 180.562694 
L 435.202584 180.667626 
L 431.284761 180.889409 
L 423.311816 180.669966 
L 421.310152 180.660968 
L 417.778762 180.542293 
L 416.335244 180.662624 
L 408.54676 180.888493 
L 406.340928 181.215325 
L 404.584873 181.335525 
L 403.537495 181.438114 
L 399.724183 181.562613 
L 397.22741 181.608023 
L 391.262988 181.631132 
L 380.802256 181.58543 
L 378.797663 181.617875 
L 374.820596 181.584129 
L 369.819175 181.503074 
L 368.081354 181.586724 
L 365.791786 181.520786 
L 364.020237 181.550123 
L 358.367727 181.486465 
L 356.437484 181.56525 
L 355.472515 181.496464 
L 353.618609 181.640683 
L 353.147908 181.609272 
L 352.151989 181.656797 
L 350.423993 181.665919 
L 336.685054 182.008564 
L 327.574437 182.117425 
L 326.425462 182.03447 
L 325.957355 182.11436 
L 324.35909 182.041398 
L 323.837467 182.045559 
L 322.79693 181.832402 
L 321.88336 182.104395 
L 321.371827 181.985499 
L 318.092408 182.083154 
L 311.815566 182.050795 
L 310.557586 181.957432 
L 309.444387 182.072937 
L 304.843019 182.093834 
L 303.226649 182.110388 
L 302.685088 182.169679 
L 298.53709 182.226936 
L 295.597507 182.305444 
L 287.806666 182.467038 
L 287.231067 182.3681 
L 286.545596 182.473035 
L 282.808142 182.451405 
L 280.134549 182.456371 
L 279.608426 182.400043 
L 276.992327 182.481899 
L 276.573446 182.501082 
L 275.613022 182.405366 
L 273.650272 182.333406 
L 271.617129 182.439632 
L 271.213315 182.347286 
L 269.851906 182.453629 
L 255.141658 182.754625 
L 254.515547 182.67417 
L 253.924494 182.762592 
L 250.573992 182.654289 
L 249.91916 182.798966 
L 249.304276 182.66035 
L 247.1295 182.839562 
L 245.239145 182.787592 
L 244.126173 182.910855 
L 243.609091 182.833521 
L 242.502026 182.905472 
L 237.781211 182.768814 
L 234.775164 182.917575 
L 232.935353 182.829995 
L 230.669373 182.941512 
L 228.64616 182.802078 
L 223.915475 183.039243 
L 223.156462 182.970989 
L 219.705981 183.005902 
L 218.508847 183.003184 
L 214.655907 182.952908 
L 212.228854 182.988339 
L 211.073071 183.006404 
L 210.016584 182.992822 
L 200.256711 183.026212 
L 199.849966 183.105733 
L 198.498452 183.085887 
L 194.96056 183.127849 
L 193.990701 183.123526 
L 189.837432 183.128364 
L 188.705068 183.230889 
L 187.622894 183.132495 
L 186.510532 183.191156 
L 185.449307 183.207306 
L 175.485873 183.40145 
L 174.505194 183.310884 
L 171.2268 183.289051 
L 170.368056 183.304158 
L 169.883005 183.412998 
L 168.52464 183.498261 
L 167.352202 183.382558 
L 166.247325 183.393445 
L 164.414974 183.449938 
L 163.097087 183.411849 
L 161.714816 183.339858 
L 160.884676 183.413356 
L 159.506275 183.358164 
L 158.157032 183.391319 
L 156.780812 183.417853 
L 152.736252 183.427876 
L 152.054804 183.365736 
L 150.787237 183.528464 
L 148.415554 183.59068 
L 145.739699 183.595833 
L 142.591105 183.635403 
L 139.547736 183.72918 
L 138.430474 183.709173 
L 134.218294 183.787942 
L 133.14446 183.734746 
L 130.508491 183.812834 
L 129.981583 183.701365 
L 125.387493 183.713983 
L 122.611532 183.63402 
L 122.046174 183.682204 
L 120.797804 183.570326 
L 119.56075 183.554612 
L 116.702629 183.497222 
L 113.638691 183.429741 
L 111.830714 183.675708 
L 111.26391 183.79371 
L 110.18768 184.275967 
L 106.057332 186.867363 
L 105.751414 187.194334 
L 103.79223 188.722372 
L 103.300616 188.931221 
L 102.576899 189.501479 
L 100.06423 191.190589 
L 99.661784 191.571465 
L 98.484776 193.4613 
L 98.009617 194.446352 
L 97.513553 195.380061 
L 97.093909 196.82565 
L 96.679099 197.821608 
L 95.871237 199.097164 
L 94.909108 201.56908 
L 94.881813 203.527602 
L 95.02635 204.807507 
L 95.300104 206.156066 
L 95.795261 207.429696 
L 96.431754 208.756559 
L 97.16853 209.927843 
L 98.384029 211.719531 
L 98.37854 211.754129 
L 98.30821 211.63503 
L 98.254063 211.547321 
L 98.266424 211.566108 
" clip-path="url(#p121ccd71b3)" style="fill: none; stroke: #1ac938; stroke-opacity: 0.75; stroke-width: 1.5; stroke-linecap: round"/>
   </g>
   <g id="patch_4">
    <path d="M 76.22595 380.34 
L 76.22595 12.96 
" style="fill: none; stroke: #ffffff; stroke-width: 1.25; stroke-linejoin: miter; stroke-linecap: square"/>
   </g>
   <g id="patch_5">
    <path d="M 488.1816 380.34 
L 488.1816 12.96 
" style="fill: none; stroke: #ffffff; stroke-width: 1.25; stroke-linejoin: miter; stroke-linecap: square"/>
   </g>
   <g id="patch_6">
    <path d="M 76.22595 380.34 
L 488.1816 380.34 
" style="fill: none; stroke: #ffffff; stroke-width: 1.25; stroke-linejoin: miter; stroke-linecap: square"/>
   </g>
   <g id="patch_7">
    <path d="M 76.22595 12.96 
L 488.1816 12.96 
" style="fill: none; stroke: #ffffff; stroke-width: 1.25; stroke-linejoin: miter; stroke-linecap: square"/>
   </g>
   <g id="legend_1">
    <g id="patch_8">
     <path d="M 273.274256 86.34375 
L 480.4816 86.34375 
Q 482.6816 86.34375 482.6816 84.14375 
L 482.6816 20.66 
Q 482.6816 18.46 480.4816 18.46 
L 273.274256 18.46 
Q 271.074256 18.46 271.074256 20.66 
L 271.074256 84.14375 
Q 271.074256 86.34375 273.274256 86.34375 
z
" style="fill: #eaeaf2; opacity: 0.8; stroke: #cccccc; stroke-linejoin: miter"/>
    </g>
    <g id="line2d_20">
     <path d="M 275.474256 27.368281 
L 286.474256 27.368281 
L 297.474256 27.368281 
" style="fill: none; stroke-dasharray: 5.55,2.4; stroke-dashoffset: 0; stroke: #000000; stroke-opacity: 0.5; stroke-width: 1.5"/>
    </g>
    <g id="text_18">
     <!-- Ground Truth -->
     <g style="fill: #262626" transform="translate(306.274256 31.218281)scale(0.11 -0.11)">
      <defs>
       <path id="DejaVuSans-47" d="M 3809 666 
L 3809 1919 
L 2778 1919 
L 2778 2438 
L 4434 2438 
L 4434 434 
Q 4069 175 3628 42 
Q 3188 -91 2688 -91 
Q 1594 -91 976 548 
Q 359 1188 359 2328 
Q 359 3472 976 4111 
Q 1594 4750 2688 4750 
Q 3144 4750 3555 4637 
Q 3966 4525 4313 4306 
L 4313 3634 
Q 3963 3931 3569 4081 
Q 3175 4231 2741 4231 
Q 1884 4231 1454 3753 
Q 1025 3275 1025 2328 
Q 1025 1384 1454 906 
Q 1884 428 2741 428 
Q 3075 428 3337 486 
Q 3600 544 3809 666 
z
" transform="scale(0.015625)"/>
       <path id="DejaVuSans-72" d="M 2631 2963 
Q 2534 3019 2420 3045 
Q 2306 3072 2169 3072 
Q 1681 3072 1420 2755 
Q 1159 2438 1159 1844 
L 1159 0 
L 581 0 
L 581 3500 
L 1159 3500 
L 1159 2956 
Q 1341 3275 1631 3429 
Q 1922 3584 2338 3584 
Q 2397 3584 2469 3576 
Q 2541 3569 2628 3553 
L 2631 2963 
z
" transform="scale(0.015625)"/>
       <path id="DejaVuSans-6f" d="M 1959 3097 
Q 1497 3097 1228 2736 
Q 959 2375 959 1747 
Q 959 1119 1226 758 
Q 1494 397 1959 397 
Q 2419 397 2687 759 
Q 2956 1122 2956 1747 
Q 2956 2369 2687 2733 
Q 2419 3097 1959 3097 
z
M 1959 3584 
Q 2709 3584 3137 3096 
Q 3566 2609 3566 1747 
Q 3566 888 3137 398 
Q 2709 -91 1959 -91 
Q 1206 -91 779 398 
Q 353 888 353 1747 
Q 353 2609 779 3096 
Q 1206 3584 1959 3584 
z
" transform="scale(0.015625)"/>
       <path id="DejaVuSans-75" d="M 544 1381 
L 544 3500 
L 1119 3500 
L 1119 1403 
Q 1119 906 1312 657 
Q 1506 409 1894 409 
Q 2359 409 2629 706 
Q 2900 1003 2900 1516 
L 2900 3500 
L 3475 3500 
L 3475 0 
L 2900 0 
L 2900 538 
Q 2691 219 2414 64 
Q 2138 -91 1772 -91 
Q 1169 -91 856 284 
Q 544 659 544 1381 
z
M 1991 3584 
L 1991 3584 
z
" transform="scale(0.015625)"/>
       <path id="DejaVuSans-6e" d="M 3513 2113 
L 3513 0 
L 2938 0 
L 2938 2094 
Q 2938 2591 2744 2837 
Q 2550 3084 2163 3084 
Q 1697 3084 1428 2787 
Q 1159 2491 1159 1978 
L 1159 0 
L 581 0 
L 581 3500 
L 1159 3500 
L 1159 2956 
Q 1366 3272 1645 3428 
Q 1925 3584 2291 3584 
Q 2894 3584 3203 3211 
Q 3513 2838 3513 2113 
z
" transform="scale(0.015625)"/>
       <path id="DejaVuSans-64" d="M 2906 2969 
L 2906 4863 
L 3481 4863 
L 3481 0 
L 2906 0 
L 2906 525 
Q 2725 213 2448 61 
Q 2172 -91 1784 -91 
Q 1150 -91 751 415 
Q 353 922 353 1747 
Q 353 2572 751 3078 
Q 1150 3584 1784 3584 
Q 2172 3584 2448 3432 
Q 2725 3281 2906 2969 
z
M 947 1747 
Q 947 1113 1208 752 
Q 1469 391 1925 391 
Q 2381 391 2643 752 
Q 2906 1113 2906 1747 
Q 2906 2381 2643 2742 
Q 2381 3103 1925 3103 
Q 1469 3103 1208 2742 
Q 947 2381 947 1747 
z
" transform="scale(0.015625)"/>
       <path id="DejaVuSans-54" d="M -19 4666 
L 3928 4666 
L 3928 4134 
L 2272 4134 
L 2272 0 
L 1638 0 
L 1638 4134 
L -19 4134 
L -19 4666 
z
" transform="scale(0.015625)"/>
       <path id="DejaVuSans-74" d="M 1172 4494 
L 1172 3500 
L 2356 3500 
L 2356 3053 
L 1172 3053 
L 1172 1153 
Q 1172 725 1289 603 
Q 1406 481 1766 481 
L 2356 481 
L 2356 0 
L 1766 0 
Q 1100 0 847 248 
Q 594 497 594 1153 
L 594 3053 
L 172 3053 
L 172 3500 
L 594 3500 
L 594 4494 
L 1172 4494 
z
" transform="scale(0.015625)"/>
       <path id="DejaVuSans-68" d="M 3513 2113 
L 3513 0 
L 2938 0 
L 2938 2094 
Q 2938 2591 2744 2837 
Q 2550 3084 2163 3084 
Q 1697 3084 1428 2787 
Q 1159 2491 1159 1978 
L 1159 0 
L 581 0 
L 581 4863 
L 1159 4863 
L 1159 2956 
Q 1366 3272 1645 3428 
Q 1925 3584 2291 3584 
Q 2894 3584 3203 3211 
Q 3513 2838 3513 2113 
z
" transform="scale(0.015625)"/>
      </defs>
      <use xlink:href="#DejaVuSans-47"/>
      <use xlink:href="#DejaVuSans-72" x="77.490234"/>
      <use xlink:href="#DejaVuSans-6f" x="116.353516"/>
      <use xlink:href="#DejaVuSans-75" x="177.535156"/>
      <use xlink:href="#DejaVuSans-6e" x="240.914062"/>
      <use xlink:href="#DejaVuSans-64" x="304.292969"/>
      <use xlink:href="#DejaVuSans-20" x="367.769531"/>
      <use xlink:href="#DejaVuSans-54" x="399.556641"/>
      <use xlink:href="#DejaVuSans-72" x="445.890625"/>
      <use xlink:href="#DejaVuSans-75" x="487.003906"/>
      <use xlink:href="#DejaVuSans-74" x="550.382812"/>
      <use xlink:href="#DejaVuSans-68" x="589.591797"/>
     </g>
    </g>
    <g id="line2d_21">
     <path d="M 275.474256 43.514219 
L 286.474256 43.514219 
L 297.474256 43.514219 
" style="fill: none; stroke: #023eff; stroke-opacity: 0.75; stroke-width: 1.5; stroke-linecap: round"/>
    </g>
    <g id="text_19">
     <!-- GNSS-Stereo-Inertial (Ours) -->
     <g style="fill: #262626" transform="translate(306.274256 47.364219)scale(0.11 -0.11)">
      <defs>
       <path id="DejaVuSans-4e" d="M 628 4666 
L 1478 4666 
L 3547 763 
L 3547 4666 
L 4159 4666 
L 4159 0 
L 3309 0 
L 1241 3903 
L 1241 0 
L 628 0 
L 628 4666 
z
" transform="scale(0.015625)"/>
       <path id="DejaVuSans-53" d="M 3425 4513 
L 3425 3897 
Q 3066 4069 2747 4153 
Q 2428 4238 2131 4238 
Q 1616 4238 1336 4038 
Q 1056 3838 1056 3469 
Q 1056 3159 1242 3001 
Q 1428 2844 1947 2747 
L 2328 2669 
Q 3034 2534 3370 2195 
Q 3706 1856 3706 1288 
Q 3706 609 3251 259 
Q 2797 -91 1919 -91 
Q 1588 -91 1214 -16 
Q 841 59 441 206 
L 441 856 
Q 825 641 1194 531 
Q 1563 422 1919 422 
Q 2459 422 2753 634 
Q 3047 847 3047 1241 
Q 3047 1584 2836 1778 
Q 2625 1972 2144 2069 
L 1759 2144 
Q 1053 2284 737 2584 
Q 422 2884 422 3419 
Q 422 4038 858 4394 
Q 1294 4750 2059 4750 
Q 2388 4750 2728 4690 
Q 3069 4631 3425 4513 
z
" transform="scale(0.015625)"/>
       <path id="DejaVuSans-2d" d="M 313 2009 
L 1997 2009 
L 1997 1497 
L 313 1497 
L 313 2009 
z
" transform="scale(0.015625)"/>
       <path id="DejaVuSans-65" d="M 3597 1894 
L 3597 1613 
L 953 1613 
Q 991 1019 1311 708 
Q 1631 397 2203 397 
Q 2534 397 2845 478 
Q 3156 559 3463 722 
L 3463 178 
Q 3153 47 2828 -22 
Q 2503 -91 2169 -91 
Q 1331 -91 842 396 
Q 353 884 353 1716 
Q 353 2575 817 3079 
Q 1281 3584 2069 3584 
Q 2775 3584 3186 3129 
Q 3597 2675 3597 1894 
z
M 3022 2063 
Q 3016 2534 2758 2815 
Q 2500 3097 2075 3097 
Q 1594 3097 1305 2825 
Q 1016 2553 972 2059 
L 3022 2063 
z
" transform="scale(0.015625)"/>
       <path id="DejaVuSans-49" d="M 628 4666 
L 1259 4666 
L 1259 0 
L 628 0 
L 628 4666 
z
" transform="scale(0.015625)"/>
       <path id="DejaVuSans-69" d="M 603 3500 
L 1178 3500 
L 1178 0 
L 603 0 
L 603 3500 
z
M 603 4863 
L 1178 4863 
L 1178 4134 
L 603 4134 
L 603 4863 
z
" transform="scale(0.015625)"/>
       <path id="DejaVuSans-61" d="M 2194 1759 
Q 1497 1759 1228 1600 
Q 959 1441 959 1056 
Q 959 750 1161 570 
Q 1363 391 1709 391 
Q 2188 391 2477 730 
Q 2766 1069 2766 1631 
L 2766 1759 
L 2194 1759 
z
M 3341 1997 
L 3341 0 
L 2766 0 
L 2766 531 
Q 2569 213 2275 61 
Q 1981 -91 1556 -91 
Q 1019 -91 701 211 
Q 384 513 384 1019 
Q 384 1609 779 1909 
Q 1175 2209 1959 2209 
L 2766 2209 
L 2766 2266 
Q 2766 2663 2505 2880 
Q 2244 3097 1772 3097 
Q 1472 3097 1187 3025 
Q 903 2953 641 2809 
L 641 3341 
Q 956 3463 1253 3523 
Q 1550 3584 1831 3584 
Q 2591 3584 2966 3190 
Q 3341 2797 3341 1997 
z
" transform="scale(0.015625)"/>
       <path id="DejaVuSans-6c" d="M 603 4863 
L 1178 4863 
L 1178 0 
L 603 0 
L 603 4863 
z
" transform="scale(0.015625)"/>
       <path id="DejaVuSans-4f" d="M 2522 4238 
Q 1834 4238 1429 3725 
Q 1025 3213 1025 2328 
Q 1025 1447 1429 934 
Q 1834 422 2522 422 
Q 3209 422 3611 934 
Q 4013 1447 4013 2328 
Q 4013 3213 3611 3725 
Q 3209 4238 2522 4238 
z
M 2522 4750 
Q 3503 4750 4090 4092 
Q 4678 3434 4678 2328 
Q 4678 1225 4090 567 
Q 3503 -91 2522 -91 
Q 1538 -91 948 565 
Q 359 1222 359 2328 
Q 359 3434 948 4092 
Q 1538 4750 2522 4750 
z
" transform="scale(0.015625)"/>
       <path id="DejaVuSans-73" d="M 2834 3397 
L 2834 2853 
Q 2591 2978 2328 3040 
Q 2066 3103 1784 3103 
Q 1356 3103 1142 2972 
Q 928 2841 928 2578 
Q 928 2378 1081 2264 
Q 1234 2150 1697 2047 
L 1894 2003 
Q 2506 1872 2764 1633 
Q 3022 1394 3022 966 
Q 3022 478 2636 193 
Q 2250 -91 1575 -91 
Q 1294 -91 989 -36 
Q 684 19 347 128 
L 347 722 
Q 666 556 975 473 
Q 1284 391 1588 391 
Q 1994 391 2212 530 
Q 2431 669 2431 922 
Q 2431 1156 2273 1281 
Q 2116 1406 1581 1522 
L 1381 1569 
Q 847 1681 609 1914 
Q 372 2147 372 2553 
Q 372 3047 722 3315 
Q 1072 3584 1716 3584 
Q 2034 3584 2315 3537 
Q 2597 3491 2834 3397 
z
" transform="scale(0.015625)"/>
      </defs>
      <use xlink:href="#DejaVuSans-47"/>
      <use xlink:href="#DejaVuSans-4e" x="77.490234"/>
      <use xlink:href="#DejaVuSans-53" x="152.294922"/>
      <use xlink:href="#DejaVuSans-53" x="215.771484"/>
      <use xlink:href="#DejaVuSans-2d" x="279.248047"/>
      <use xlink:href="#DejaVuSans-53" x="315.332031"/>
      <use xlink:href="#DejaVuSans-74" x="378.808594"/>
      <use xlink:href="#DejaVuSans-65" x="418.017578"/>
      <use xlink:href="#DejaVuSans-72" x="479.541016"/>
      <use xlink:href="#DejaVuSans-65" x="518.404297"/>
      <use xlink:href="#DejaVuSans-6f" x="579.927734"/>
      <use xlink:href="#DejaVuSans-2d" x="642.984375"/>
      <use xlink:href="#DejaVuSans-49" x="679.068359"/>
      <use xlink:href="#DejaVuSans-6e" x="708.560547"/>
      <use xlink:href="#DejaVuSans-65" x="771.939453"/>
      <use xlink:href="#DejaVuSans-72" x="833.462891"/>
      <use xlink:href="#DejaVuSans-74" x="874.576172"/>
      <use xlink:href="#DejaVuSans-69" x="913.785156"/>
      <use xlink:href="#DejaVuSans-61" x="941.568359"/>
      <use xlink:href="#DejaVuSans-6c" x="1002.847656"/>
      <use xlink:href="#DejaVuSans-20" x="1030.630859"/>
      <use xlink:href="#DejaVuSans-28" x="1062.417969"/>
      <use xlink:href="#DejaVuSans-4f" x="1101.431641"/>
      <use xlink:href="#DejaVuSans-75" x="1180.142578"/>
      <use xlink:href="#DejaVuSans-72" x="1243.521484"/>
      <use xlink:href="#DejaVuSans-73" x="1284.634766"/>
      <use xlink:href="#DejaVuSans-29" x="1336.734375"/>
     </g>
    </g>
    <g id="line2d_22">
     <path d="M 275.474256 59.660156 
L 286.474256 59.660156 
L 297.474256 59.660156 
" style="fill: none; stroke: #ff7c00; stroke-opacity: 0.75; stroke-width: 1.5; stroke-linecap: round"/>
    </g>
    <g id="text_20">
     <!-- GNSS-Stereo-Inertial (Qin et al) -->
     <g style="fill: #262626" transform="translate(306.274256 63.510156)scale(0.11 -0.11)">
      <defs>
       <path id="DejaVuSans-51" d="M 2522 4238 
Q 1834 4238 1429 3725 
Q 1025 3213 1025 2328 
Q 1025 1447 1429 934 
Q 1834 422 2522 422 
Q 3209 422 3611 934 
Q 4013 1447 4013 2328 
Q 4013 3213 3611 3725 
Q 3209 4238 2522 4238 
z
M 3406 84 
L 4238 -825 
L 3475 -825 
L 2784 -78 
Q 2681 -84 2626 -87 
Q 2572 -91 2522 -91 
Q 1538 -91 948 567 
Q 359 1225 359 2328 
Q 359 3434 948 4092 
Q 1538 4750 2522 4750 
Q 3503 4750 4090 4092 
Q 4678 3434 4678 2328 
Q 4678 1516 4351 937 
Q 4025 359 3406 84 
z
" transform="scale(0.015625)"/>
      </defs>
      <use xlink:href="#DejaVuSans-47"/>
      <use xlink:href="#DejaVuSans-4e" x="77.490234"/>
      <use xlink:href="#DejaVuSans-53" x="152.294922"/>
      <use xlink:href="#DejaVuSans-53" x="215.771484"/>
      <use xlink:href="#DejaVuSans-2d" x="279.248047"/>
      <use xlink:href="#DejaVuSans-53" x="315.332031"/>
      <use xlink:href="#DejaVuSans-74" x="378.808594"/>
      <use xlink:href="#DejaVuSans-65" x="418.017578"/>
      <use xlink:href="#DejaVuSans-72" x="479.541016"/>
      <use xlink:href="#DejaVuSans-65" x="518.404297"/>
      <use xlink:href="#DejaVuSans-6f" x="579.927734"/>
      <use xlink:href="#DejaVuSans-2d" x="642.984375"/>
      <use xlink:href="#DejaVuSans-49" x="679.068359"/>
      <use xlink:href="#DejaVuSans-6e" x="708.560547"/>
      <use xlink:href="#DejaVuSans-65" x="771.939453"/>
      <use xlink:href="#DejaVuSans-72" x="833.462891"/>
      <use xlink:href="#DejaVuSans-74" x="874.576172"/>
      <use xlink:href="#DejaVuSans-69" x="913.785156"/>
      <use xlink:href="#DejaVuSans-61" x="941.568359"/>
      <use xlink:href="#DejaVuSans-6c" x="1002.847656"/>
      <use xlink:href="#DejaVuSans-20" x="1030.630859"/>
      <use xlink:href="#DejaVuSans-28" x="1062.417969"/>
      <use xlink:href="#DejaVuSans-51" x="1101.431641"/>
      <use xlink:href="#DejaVuSans-69" x="1180.142578"/>
      <use xlink:href="#DejaVuSans-6e" x="1207.925781"/>
      <use xlink:href="#DejaVuSans-20" x="1271.304688"/>
      <use xlink:href="#DejaVuSans-65" x="1303.091797"/>
      <use xlink:href="#DejaVuSans-74" x="1364.615234"/>
      <use xlink:href="#DejaVuSans-20" x="1403.824219"/>
      <use xlink:href="#DejaVuSans-61" x="1435.611328"/>
      <use xlink:href="#DejaVuSans-6c" x="1496.890625"/>
      <use xlink:href="#DejaVuSans-29" x="1524.673828"/>
     </g>
    </g>
    <g id="line2d_23">
     <path d="M 275.474256 75.806094 
L 286.474256 75.806094 
L 297.474256 75.806094 
" style="fill: none; stroke: #1ac938; stroke-opacity: 0.75; stroke-width: 1.5; stroke-linecap: round"/>
    </g>
    <g id="text_21">
     <!-- Stereo-Inertial (Campos et al) -->
     <g style="fill: #262626" transform="translate(306.274256 79.656094)scale(0.11 -0.11)">
      <defs>
       <path id="DejaVuSans-43" d="M 4122 4306 
L 4122 3641 
Q 3803 3938 3442 4084 
Q 3081 4231 2675 4231 
Q 1875 4231 1450 3742 
Q 1025 3253 1025 2328 
Q 1025 1406 1450 917 
Q 1875 428 2675 428 
Q 3081 428 3442 575 
Q 3803 722 4122 1019 
L 4122 359 
Q 3791 134 3420 21 
Q 3050 -91 2638 -91 
Q 1578 -91 968 557 
Q 359 1206 359 2328 
Q 359 3453 968 4101 
Q 1578 4750 2638 4750 
Q 3056 4750 3426 4639 
Q 3797 4528 4122 4306 
z
" transform="scale(0.015625)"/>
       <path id="DejaVuSans-70" d="M 1159 525 
L 1159 -1331 
L 581 -1331 
L 581 3500 
L 1159 3500 
L 1159 2969 
Q 1341 3281 1617 3432 
Q 1894 3584 2278 3584 
Q 2916 3584 3314 3078 
Q 3713 2572 3713 1747 
Q 3713 922 3314 415 
Q 2916 -91 2278 -91 
Q 1894 -91 1617 61 
Q 1341 213 1159 525 
z
M 3116 1747 
Q 3116 2381 2855 2742 
Q 2594 3103 2138 3103 
Q 1681 3103 1420 2742 
Q 1159 2381 1159 1747 
Q 1159 1113 1420 752 
Q 1681 391 2138 391 
Q 2594 391 2855 752 
Q 3116 1113 3116 1747 
z
" transform="scale(0.015625)"/>
      </defs>
      <use xlink:href="#DejaVuSans-53"/>
      <use xlink:href="#DejaVuSans-74" x="63.476562"/>
      <use xlink:href="#DejaVuSans-65" x="102.685547"/>
      <use xlink:href="#DejaVuSans-72" x="164.208984"/>
      <use xlink:href="#DejaVuSans-65" x="203.072266"/>
      <use xlink:href="#DejaVuSans-6f" x="264.595703"/>
      <use xlink:href="#DejaVuSans-2d" x="327.652344"/>
      <use xlink:href="#DejaVuSans-49" x="363.736328"/>
      <use xlink:href="#DejaVuSans-6e" x="393.228516"/>
      <use xlink:href="#DejaVuSans-65" x="456.607422"/>
      <use xlink:href="#DejaVuSans-72" x="518.130859"/>
      <use xlink:href="#DejaVuSans-74" x="559.244141"/>
      <use xlink:href="#DejaVuSans-69" x="598.453125"/>
      <use xlink:href="#DejaVuSans-61" x="626.236328"/>
      <use xlink:href="#DejaVuSans-6c" x="687.515625"/>
      <use xlink:href="#DejaVuSans-20" x="715.298828"/>
      <use xlink:href="#DejaVuSans-28" x="747.085938"/>
      <use xlink:href="#DejaVuSans-43" x="786.099609"/>
      <use xlink:href="#DejaVuSans-61" x="855.923828"/>
      <use xlink:href="#DejaVuSans-6d" x="917.203125"/>
      <use xlink:href="#DejaVuSans-70" x="1014.615234"/>
      <use xlink:href="#DejaVuSans-6f" x="1078.091797"/>
      <use xlink:href="#DejaVuSans-73" x="1139.273438"/>
      <use xlink:href="#DejaVuSans-20" x="1191.373047"/>
      <use xlink:href="#DejaVuSans-65" x="1223.160156"/>
      <use xlink:href="#DejaVuSans-74" x="1284.683594"/>
      <use xlink:href="#DejaVuSans-20" x="1323.892578"/>
      <use xlink:href="#DejaVuSans-61" x="1355.679688"/>
      <use xlink:href="#DejaVuSans-6c" x="1416.958984"/>
      <use xlink:href="#DejaVuSans-29" x="1444.742188"/>
     </g>
    </g>
   </g>
  </g>
  <g id="axes_2">
   <g id="patch_9">
    <path d="M 386.353754 358.34 
L 466.1816 358.34 
L 466.1816 249.047799 
L 386.353754 249.047799 
z
" style="fill: #eaeaf2"/>
   </g>
   <g id="matplotlib.axis_3">
    <g id="xtick_9">
     <g id="line2d_24">
      <path d="M 398.065412 358.34 
L 398.065412 249.047799 
" clip-path="url(#p6ae31e9053)" style="fill: none; stroke: #ffffff; stroke-linecap: round"/>
     </g>
     <g id="text_22">
      <!-- −10 -->
      <g style="fill: #262626" transform="translate(386.457834 376.198281)scale(0.11 -0.11)">
       <use xlink:href="#DejaVuSans-2212"/>
       <use xlink:href="#DejaVuSans-31" x="83.789062"/>
       <use xlink:href="#DejaVuSans-30" x="147.412109"/>
      </g>
     </g>
    </g>
    <g id="xtick_10">
     <g id="line2d_25">
      <path d="M 447.957816 358.34 
L 447.957816 249.047799 
" clip-path="url(#p6ae31e9053)" style="fill: none; stroke: #ffffff; stroke-linecap: round"/>
     </g>
     <g id="text_23">
      <!-- −5 -->
      <g style="fill: #262626" transform="translate(439.849612 376.198281)scale(0.11 -0.11)">
       <defs>
        <path id="DejaVuSans-35" d="M 691 4666 
L 3169 4666 
L 3169 4134 
L 1269 4134 
L 1269 2991 
Q 1406 3038 1543 3061 
Q 1681 3084 1819 3084 
Q 2600 3084 3056 2656 
Q 3513 2228 3513 1497 
Q 3513 744 3044 326 
Q 2575 -91 1722 -91 
Q 1428 -91 1123 -41 
Q 819 9 494 109 
L 494 744 
Q 775 591 1075 516 
Q 1375 441 1709 441 
Q 2250 441 2565 725 
Q 2881 1009 2881 1497 
Q 2881 1984 2565 2268 
Q 2250 2553 1709 2553 
Q 1456 2553 1204 2497 
Q 953 2441 691 2322 
L 691 4666 
z
" transform="scale(0.015625)"/>
       </defs>
       <use xlink:href="#DejaVuSans-2212"/>
       <use xlink:href="#DejaVuSans-35" x="83.789062"/>
      </g>
     </g>
    </g>
   </g>
   <g id="matplotlib.axis_4">
    <g id="ytick_8">
     <g id="line2d_26">
      <path d="M 386.353754 338.939571 
L 466.1816 338.939571 
" clip-path="url(#p6ae31e9053)" style="fill: none; stroke: #ffffff; stroke-linecap: round"/>
     </g>
     <g id="text_24">
      <!-- −5 -->
      <g style="fill: #262626" transform="translate(360.637348 343.118712)scale(0.11 -0.11)">
       <use xlink:href="#DejaVuSans-2212"/>
       <use xlink:href="#DejaVuSans-35" x="83.789062"/>
      </g>
     </g>
    </g>
    <g id="ytick_9">
     <g id="line2d_27">
      <path d="M 386.353754 289.261298 
L 466.1816 289.261298 
" clip-path="url(#p6ae31e9053)" style="fill: none; stroke: #ffffff; stroke-linecap: round"/>
     </g>
     <g id="text_25">
      <!-- 0 -->
      <g style="fill: #262626" transform="translate(369.855004 293.440438)scale(0.11 -0.11)">
       <use xlink:href="#DejaVuSans-30"/>
      </g>
     </g>
    </g>
   </g>
   <g id="patch_10">
    <path d="M 386.353754 249.047799 
L 81.574853 193.294653 
" style="fill: none; stroke: #808080; stroke-linejoin: miter"/>
   </g>
   <g id="patch_11">
    <path d="M 466.1816 358.34 
L 101.531814 220.617704 
" style="fill: none; stroke: #808080; stroke-linejoin: miter"/>
   </g>
   <g id="line2d_28">
    <path d="M 497.850219 289.261298 
L 499.64242 289.620605 
L 501.49548 290.12075 
L 504.28 291.157542 
M 504.28 211.371501 
L 502.669848 211.265059 
L 499.940251 211.230458 
L 497.169642 210.84232 
L 494.464144 210.615313 
L 491.858601 210.823857 
L 489.243959 210.714409 
L 484.064936 211.159697 
L 478.975369 212.328742 
L 474.359017 214.455208 
L 472.191184 215.609437 
L 470.202227 216.90871 
L 468.450965 218.21092 
L 466.712036 219.364575 
L 464.685322 220.303029 
L 462.944224 221.333559 
L 461.219444 222.632626 
L 459.421742 224.156186 
L 457.776347 225.295187 
L 454.026503 228.985848 
L 452.729441 229.95916 
L 451.540834 231.101821 
L 450.241195 231.972206 
L 448.885797 233.063755 
L 447.03179 234.068137 
L 445.429079 235.171254 
L 443.95003 236.383402 
L 440.820801 238.203548 
L 437.272086 240.480045 
L 435.362309 241.475959 
L 432.217417 244.453132 
L 430.705597 246.362702 
L 429.449005 248.253515 
L 426.967067 252.410527 
L 425.151645 256.650729 
L 424.098964 258.371117 
L 423.036225 260.741618 
L 422.346953 263.086551 
L 421.93324 265.176156 
L 421.207595 267.01517 
L 419.901314 270.74571 
L 418.730936 272.599676 
L 417.780654 274.404787 
L 416.531558 276.078978 
L 414.730468 280.148623 
L 413.811479 282.250127 
L 413.01153 284.458733 
L 412.382306 286.60096 
L 412.122019 288.864491 
L 412.059365 293.876543 
L 412.375578 296.524571 
L 412.552124 299.316758 
L 414.502372 307.832066 
L 416.960528 313.289698 
L 419.8543 318.568697 
L 422.97072 323.135718 
L 424.213065 324.633977 
L 426.445145 328.363917 
L 426.966808 329.307613 
L 426.943228 329.167523 
L 426.641063 328.895084 
L 426.405588 328.552339 
L 426.337883 328.442593 
L 426.428367 328.578515 
L 426.267677 328.533036 
" clip-path="url(#p6ae31e9053)" style="fill: none; stroke-dasharray: 5.55,2.4; stroke-dashoffset: 0; stroke: #000000; stroke-opacity: 0.5; stroke-width: 1.5"/>
   </g>
   <g id="line2d_29">
    <path d="M 504.28 209.08575 
L 502.701301 209.341896 
L 499.894048 208.797891 
L 496.093972 208.775835 
L 493.859035 208.625116 
L 491.087239 208.308057 
L 486.00527 208.537536 
L 483.647341 208.442254 
L 481.330279 208.596877 
L 478.555678 208.985182 
L 473.721682 209.976302 
L 469.070975 211.994049 
L 462.552101 215.948753 
L 459.005007 217.682724 
L 457.159393 218.847912 
L 455.549559 220.272345 
L 453.721913 221.389402 
L 446.84691 227.431511 
L 443.041408 230.11106 
L 441.257865 230.898831 
L 439.790461 232.301441 
L 432.946927 236.518796 
L 431.635686 237.20047 
L 429.517726 238.606482 
L 426.422372 241.622325 
L 421.562139 249.221033 
L 420.638531 251.372337 
L 418.54683 254.862924 
L 417.55328 257.037093 
L 417.087995 259.395419 
L 415.876257 262.842608 
L 415.128115 265.145119 
L 414.227849 266.824253 
L 411.044866 272.007225 
L 410.284339 273.959436 
L 408.419306 277.734296 
L 407.160892 281.833233 
L 406.944797 286.491775 
L 407.020146 289.635901 
L 407.200383 292.314687 
L 408.05158 297.634373 
L 408.699974 300.23392 
L 409.530243 302.938466 
L 410.742766 305.275639 
L 411.809206 308.201179 
L 413.316294 310.636917 
L 414.619218 313.003796 
L 416.199485 315.295443 
L 418.85548 318.919361 
L 419.62834 320.269183 
L 421.101152 322.395268 
L 421.065015 322.51537 
L 420.969699 322.287782 
L 420.57616 321.712572 
L 420.616656 321.78646 
L 420.605747 321.775289 
" clip-path="url(#p6ae31e9053)" style="fill: none; stroke: #023eff; stroke-opacity: 0.75; stroke-width: 1.5; stroke-linecap: round"/>
   </g>
   <g id="line2d_30">
    <path d="M 504.28 216.698888 
L 497.921471 216.280644 
L 489.992394 215.415644 
L 481.86193 215.34047 
L 473.933001 215.128666 
L 481.343916 215.720055 
L 456.185431 220.936544 
L 450.170642 222.299413 
L 460.776845 233.228955 
L 456.153991 235.648688 
L 449.082557 239.511951 
L 444.735092 241.508581 
L 453.212997 232.253153 
L 448.225894 235.127766 
L 433.290902 242.363217 
L 427.708928 246.152635 
L 428.88059 247.174943 
L 424.416257 251.661209 
L 420.757775 256.103243 
L 416.814928 260.57697 
L 420.323872 268.079063 
L 416.116225 272.840191 
L 412.216661 278.227568 
L 408.754019 283.257514 
L 405.638706 288.625105 
L 413.607997 279.917472 
L 413.207383 281.679515 
L 412.695313 285.472785 
L 412.397821 291.509169 
L 412.917177 297.710831 
L 414.925758 303.08544 
L 417.858436 308.24883 
L 420.489073 315.528192 
L 421.97194 318.358609 
L 424.845547 325.033709 
L 424.556204 324.482742 
L 428.755716 324.944435 
L 426.949404 330.690719 
L 426.949404 330.690719 
" clip-path="url(#p6ae31e9053)" style="fill: none; stroke: #ff7c00; stroke-opacity: 0.75; stroke-width: 1.5; stroke-linecap: round"/>
   </g>
   <g id="line2d_31">
    <path d="M 500.600769 293.752243 
L 502.437189 294.231738 
L 504.28 294.836402 
M 504.28 211.415942 
L 500.805064 212.973054 
L 494.429069 216.852464 
L 490.93185 218.474596 
L 489.111395 219.631485 
L 487.455412 221.086581 
L 485.649766 222.259616 
L 484.283672 223.338636 
L 483.059999 224.646522 
L 480.020976 227.020774 
L 478.962841 228.174625 
L 475.223263 230.758674 
L 473.256809 231.594069 
L 471.849054 232.931561 
L 465.106609 237.117661 
L 463.917926 237.758114 
L 461.816711 239.191835 
L 458.701479 242.155048 
L 455.13929 247.746058 
L 453.993448 249.714385 
L 453.125625 251.824343 
L 452.092813 253.654593 
L 451.032791 255.240697 
L 450.108555 257.389432 
L 449.552882 259.723697 
L 447.63297 265.456235 
L 446.770742 267.155616 
L 443.539291 272.257842 
L 442.797785 274.313039 
L 441.016837 277.995022 
L 439.690775 282.145508 
L 439.446497 286.837333 
L 439.75884 292.615502 
L 440.605041 297.903707 
L 441.254759 300.49345 
L 442.105835 303.15129 
L 443.235388 305.587971 
L 444.366284 308.486007 
L 447.1182 313.249986 
L 450.41269 317.853955 
L 451.400932 319.229398 
L 452.160667 320.615114 
L 453.59046 322.747308 
L 453.568502 322.885703 
L 453.287185 322.409305 
L 453.070597 322.058471 
L 453.120039 322.133618 
" clip-path="url(#p6ae31e9053)" style="fill: none; stroke: #1ac938; stroke-opacity: 0.75; stroke-width: 1.5; stroke-linecap: round"/>
   </g>
   <g id="patch_12">
    <path d="M 386.353754 358.34 
L 386.353754 249.047799 
" style="fill: none; stroke: #000000; stroke-width: 1.25; stroke-linejoin: miter; stroke-linecap: square"/>
   </g>
   <g id="patch_13">
    <path d="M 466.1816 358.34 
L 466.1816 249.047799 
" style="fill: none; stroke: #000000; stroke-width: 1.25; stroke-linejoin: miter; stroke-linecap: square"/>
   </g>
   <g id="patch_14">
    <path d="M 386.353754 358.34 
L 466.1816 358.34 
" style="fill: none; stroke: #000000; stroke-width: 1.25; stroke-linejoin: miter; stroke-linecap: square"/>
   </g>
   <g id="patch_15">
    <path d="M 386.353754 249.047799 
L 466.1816 249.047799 
" style="fill: none; stroke: #000000; stroke-width: 1.25; stroke-linejoin: miter; stroke-linecap: square"/>
   </g>
  </g>
 </g>
 <defs>
  <clipPath id="p121ccd71b3">
   <rect x="76.22595" y="12.96" width="411.95565" height="367.38"/>
  </clipPath>
  <clipPath id="p6ae31e9053">
   <rect x="386.353754" y="249.047799" width="79.827846" height="109.292201"/>
  </clipPath>
 </defs>
</svg>
